Coordinates
version=1
nRows=14
nColumns=46
inDegrees=yes

Units are S.I. units (second, meters, Newtons, ...)
Angles are in degrees.

endheader
time	pelvis_tilt	pelvis_list	pelvis_rotation	pelvis_tx	pelvis_ty	pelvis_tz	bb_angle	bb_tx	bb_ty	bb_tz	hip_flexion_r	hip_adduction_r	hip_rotation_r	knee_angle_r	knee_angle_r_beta	ankle_angle_r	subtalar_angle_r	mtp_angle_r	crank_angle_r	hip_flexion_l	hip_adduction_l	hip_rotation_l	knee_angle_l	knee_angle_l_beta	ankle_angle_l	subtalar_angle_l	mtp_angle_l	crank_angle_l	lumbar_extension	lumbar_bending	lumbar_rotation	arm_flex_r	arm_add_r	arm_rot_r	elbow_flex_r	pro_sup_r	wrist_flex_r	wrist_dev_r	arm_flex_l	arm_add_l	arm_rot_l	elbow_flex_l	pro_sup_l	wrist_flex_l	wrist_dev_l
      2.50000000	    -12.02761699	    -10.05388155	      5.96265717	      0.29299869	      1.21917061	     -0.21959515	      0.00000000	      0.50000000	      0.00000000	      0.25000000	     72.70050162	     -8.88247356	     -9.80496265	    108.45430795	      1.89288476	      2.19908817	      1.18960162	      0.00000000	      0.00000000	     25.81599115	    -15.93219992	     -6.66138435	     23.99689995	      0.41882491	    -17.62987131	      8.22767202	      0.00000000	      0.00000000	    -57.03858281	      6.57259287	      7.22794297	     79.53971615	     -4.40189446	     44.22085998	     16.25068398	     34.31888905	      0.00000000	      0.00000000	     84.07503793	     -1.74624050	     67.14947048	     14.20061611	     31.83395648	      0.00000000	      0.00000000
      2.50500000	    -12.07980412	    -10.18104401	      5.84142878	      0.29266387	      1.22198753	     -0.21997504	      0.00000000	      0.50000000	      0.00000000	      0.25000000	     72.82085582	     -8.44338432	     -9.80764315	    107.74979291	      1.88058865	      2.80831202	      1.10049949	      0.00000000	      0.00000000	     25.89326601	    -16.15629136	     -6.74160530	     24.29290257	      0.42399113	    -19.33240745	      7.48679351	      0.00000000	      0.00000000	    -57.30840968	      6.76742585	      7.11572101	     79.93358066	     -3.79116908	     44.20154660	     16.07307587	     34.23384959	      0.00000000	      0.00000000	     84.29222129	     -2.07976884	     67.24007368	     13.85834068	     31.81468501	      0.00000000	      0.00000000
      2.51000000	    -12.14819367	    -10.32003958	      5.71084354	      0.29216232	      1.22471152	     -0.22031461	      0.00000000	      0.50000000	      0.00000000	      0.25000000	     72.91270247	     -7.99986751	     -9.80904320	    106.96416995	      1.86687695	      3.51088756	      1.11383239	      0.00000000	      0.00000000	     26.11461738	    -16.42100045	     -6.72399928	     24.79405251	      0.43273785	    -20.94930968	      7.10305540	      0.00000000	      0.00000000	    -57.57618358	      6.90824632	      7.10065409	     80.33355607	     -3.33134644	     44.16823112	     15.92284958	     34.15871567	      0.00000000	      0.00000000	     84.52280730	     -2.30570021	     67.31010205	     13.66046863	     31.80773430	      0.00000000	      0.00000000
      2.51500000	    -12.22317402	    -10.42813048	      5.58718955	      0.29172369	      1.22735532	     -0.22053598	      0.00000000	      0.50000000	      0.00000000	      0.25000000	     72.96685331	     -7.54200287	     -9.79284084	    106.13720946	      1.85244376	      4.20911949	      1.02567713	      0.00000000	      0.00000000	     26.39755096	    -16.65812040	     -6.59903093	     25.35410619	      0.44251263	    -22.88803130	      7.10899821	      0.00000000	      0.00000000	    -57.80600446	      7.02626635	      7.05967803	     80.70024041	     -2.95774814	     44.12489131	     15.79440286	     34.09179002	      0.00000000	      0.00000000	     84.76276552	     -2.50782792	     67.35060390	     13.49614276	     31.79576179	      0.00000000	      0.00000000
      2.52000000	    -12.31135955	    -10.48811262	      5.39334033	      0.29115839	      1.22991817	     -0.22065994	      0.00000000	      0.50000000	      0.00000000	      0.25000000	     73.00123752	     -7.06751019	     -9.72928502	    105.25512674	      1.83704852	      4.95299016	      0.93902516	      0.00000000	      0.00000000	     26.77337000	    -16.91599004	     -6.57301902	     26.09035789	      0.45536265	    -24.49020806	      6.91816913	      0.00000000	      0.00000000	    -58.01411225	      7.04260623	      7.01912246	     81.07266530	     -2.56993102	     44.09949746	     15.74076218	     34.04655127	      0.00000000	      0.00000000	     85.04015456	     -2.71135514	     67.36442832	     13.34257375	     31.77637218	      0.00000000	      0.00000000
      2.52500000	    -12.39033366	    -10.51126314	      5.17491979	      0.29052273	      1.23241544	     -0.22067119	      0.00000000	      0.50000000	      0.00000000	      0.25000000	     72.99031054	     -6.56965882	     -9.62667432	    104.31389396	      1.82062091	      5.63618565	      0.85237866	      0.00000000	      0.00000000	     27.17355724	    -17.13647818	     -6.39719163	     26.89938534	      0.46948284	    -25.94665804	      6.67422425	      0.00000000	      0.00000000	    -58.25640480	      6.98594206	      6.94493434	     81.40258830	     -2.24275725	     44.06964236	     15.67656827	     34.00292743	      0.00000000	      0.00000000	     85.25661944	     -2.91276311	     67.36998765	     13.19306690	     31.75483139	      0.00000000	      0.00000000
      2.53000000	    -12.55633387	    -10.66027756	      4.89499558	      0.28986859	      1.23462985	     -0.22056742	      0.00000000	      0.50000000	      0.00000000	      0.25000000	     72.98891928	     -5.95925953	     -9.61543787	    103.25442914	      1.80212976	      6.33510490	      0.91968397	      0.00000000	      0.00000000	     27.79190724	    -17.50263311	     -6.13731831	     27.88898589	      0.48675463	    -27.38561014	      6.43394100	      0.00000000	      0.00000000	    -58.34807368	      7.03732384	      6.88111233	     81.76311832	     -1.56736241	     43.96557043	     15.32145979	     33.85946080	      0.00000000	      0.00000000	     85.35422344	     -3.27253038	     67.43952249	     12.91184485	     31.72941308	      0.00000000	      0.00000000
      2.53500000	    -12.66784502	    -10.71486888	      4.66016389	      0.28911701	      1.23676604	     -0.22058234	      0.00000000	      0.50000000	      0.00000000	      0.25000000	     72.88134039	     -5.46632764	     -9.56164431	    102.16453039	      1.78310743	      7.04299521	      0.81176295	      0.00000000	      0.00000000	     28.39648807	    -17.74512792	     -5.70457274	     28.96657845	      0.50556217	    -28.60225503	      6.41425268	      0.00000000	      0.00000000	    -58.47067619	      7.02309397	      6.74850921	     82.14997351	     -1.00379731	     43.78541002	     14.94572789	     33.67968009	      0.00000000	      0.00000000	     85.55813683	     -3.56853108	     67.52085146	     12.69020488	     31.71250856	      0.00000000	      0.00000000
      2.54000000	    -12.77478090	    -10.70682853	      4.33250365	      0.28851722	      1.23887418	     -0.22049254	      0.00000000	      0.50000000	      0.00000000	      0.25000000	     72.71312065	     -4.89284138	     -9.40244715	    101.02117731	      1.76315216	      7.84902810	      0.79264757	      0.00000000	      0.00000000	     28.92717182	    -17.94009399	     -5.26001497	     29.99978595	      0.52359504	    -29.82955130	      6.53950009	      0.00000000	      0.00000000	    -58.60667677	      6.86470153	      6.67621122	     82.33815024	     -0.55687561	     43.72620883	     14.92448533	     33.61612779	      0.00000000	      0.00000000	     85.73185096	     -3.82144883	     67.53605433	     12.53328118	     31.69033735	      0.00000000	      0.00000000
      2.54500000	    -12.93484065	    -10.75127225	      3.98770836	      0.28782529	      1.24072051	     -0.22034094	      0.00000000	      0.50000000	      0.00000000	      0.25000000	     72.53510333	     -4.28741344	     -9.31791233	     99.80088689	      1.74185407	      8.76930069	      0.79452666	      0.00000000	      0.00000000	     29.63939916	    -18.21470735	     -4.73337430	     31.22357384	      0.54495417	    -30.77212378	      6.98699170	      0.00000000	      0.00000000	    -58.67895851	      6.73873281	      6.59373099	     82.55567727	     -0.18291976	     43.60666451	     14.91210642	     33.53419200	      0.00000000	      0.00000000	     85.84324701	     -4.11038108	     67.54590846	     12.38591420	     31.66842330	      0.00000000	      0.00000000
      2.55000000	    -12.96974743	    -10.51493818	      3.64486683	      0.28727284	      1.24271872	     -0.22027222	      0.00000000	      0.50000000	      0.00000000	      0.25000000	     72.16539886	     -3.87743695	     -8.99032605	     98.56564684	      1.72029507	      9.52348598	      0.64007669	      0.00000000	      0.00000000	     30.02430483	    -18.13240814	     -4.16114200	     32.27793226	      0.56335619	    -31.51676148	      7.11037264	      0.00000000	      0.00000000	    -58.81925198	      6.32548040	      6.35306930	     82.69994527	     -0.18569945	     43.53911675	     14.90465375	     33.50404364	      0.00000000	      0.00000000	     85.89711636	     -4.23252962	     67.53360446	     12.33680652	     31.65778382	      0.00000000	      0.00000000
      2.55500000	    -13.14796667	    -10.74183836	      3.17258169	      0.28673000	      1.24408547	     -0.21992533	      0.00000000	      0.50000000	      0.00000000	      0.25000000	     71.79643345	     -3.08775114	     -9.05262351	     97.14524725	      1.69550442	     10.59410529	      0.64705712	      0.00000000	      0.00000000	     30.92816569	    -18.68663014	     -3.81719136	     33.85991159	      0.59096694	    -32.26787029	      7.08989929	      0.00000000	      0.00000000	    -58.81798438	      6.30316625	      6.43136470	     82.85329410	      0.26207621	     43.36644138	     15.11426896	     33.45192250	      0.00000000	      0.00000000	     85.94517612	     -4.62952587	     67.48455088	     12.17565959	     31.62155956	      0.00000000	      0.00000000
      2.56000000	    -13.34857784	    -10.60117610	      2.74698544	      0.28617455	      1.24517323	     -0.21980396	      0.00000000	      0.50000000	      0.00000000	      0.25000000	     71.44234790	     -2.60546714	     -8.82760641	     95.73734637	      1.67093191	     11.55526227	      0.56214079	      0.00000000	      0.00000000	     31.72165107	    -18.76197214	     -3.42928426	     35.35245666	      0.61701677	    -32.87507026	      7.02009912	      0.00000000	      0.00000000	    -58.74076657	      6.00526574	      6.27333183	     82.89050873	      0.43708149	     43.14519880	     15.24590466	     33.38733835	      0.00000000	      0.00000000	     85.93914761	     -4.85192065	     67.43001426	     12.11766926	     31.59925718	      0.00000000	      0.00000000
      2.56500000	    -13.59156901	    -10.53203025	      2.29447936	      0.28576018	      1.24596253	     -0.21942455	      0.00000000	      0.50000000	      0.00000000	      0.25000000	     71.04732764	     -2.04649344	     -8.66468249	     94.22457183	      1.64452901	     12.46423064	      0.47714931	      0.00000000	      0.00000000	     32.62860860	    -18.94716890	     -3.06606268	     36.98507306	      0.64551130	    -33.27717157	      7.00927301	      0.00000000	      0.00000000	    -58.56682277	      5.72573646	      6.21441444	     82.42378743	      1.58245929	     35.70406040	     16.45087479	     31.98755137	      0.00000000	      0.00000000	     85.73785375	     -4.99175328	     65.72469461	     12.15571545	     32.60943868	      0.00000000	      0.00000000
